<svg xmlns="http://www.w3.org/2000/svg" width="710" height="331" fill="none"><style>.B{stroke-linecap:round}.C{stroke:#3a3f52}.D{stroke-width:2.544}.E{fill:#fff}.F{fill:#3a3f52}.G{stroke-linejoin:round}.H{fill:#1077f3}.I{stroke-width:2.955}.J{stroke-width:5.91}.K{stroke-width:11.82}.L{stroke-dasharray:5.91 5.91}</style><path fill="#d9d9d9" d="M558.49 219.093c0 114.11-116.245 89.778-252.919 89.778s-242.02 24.332-242.02-89.778S174.347 12.48 311.02 12.48s247.47 92.504 247.47 206.613"/><g class="H"><path d="m304.861 24.452 8.891 28.365-23.515 20.575 2.695-53.398h5.861a6.36 6.36 0 0 1 6.068 4.458"/><path d="M427.71 73.848h29.491v23.497h-9.776A19.72 19.72 0 0 1 427.71 77.63z" class="C D"/></g><path d="M465.174 85.596c0 3.358-.983 6.346-2.509 8.463s-3.526 3.285-5.605 3.285-4.079-1.167-5.606-3.285-2.509-5.105-2.509-8.463.983-6.346 2.509-8.463 3.526-3.285 5.606-3.285 4.078 1.167 5.605 3.285 2.509 5.105 2.509 8.463z" class="C D E"/><path d="M509.858 69.25a3.326 3.326 0 0 0-3.222-3.325l-150.738-4.698a5.676 5.676 0 1 0-.177 11.349h150.811a3.326 3.326 0 0 0 3.326-3.326" class="H"/><path d="m296.309 57.417 108.415-29.351a19.08 19.08 0 0 1 20.515 7.333l10.031 14.056c12.888 1.371 22.145 13.177 20.596 26.045-.714 5.932-5.703 10.498-11.677 10.605l-122.933 2.191-31.068-14.769z" class="E"/><path d="M381.392 55.999v-4.072a4.45 4.45 0 0 0-5.998-4.166 4.44 4.44 0 0 0-2.893 4.166v4.071a4.446 4.446 0 0 0 8.891.002z" class="C D"/><path d="M196.229 63.484a3.326 3.326 0 0 1 3.222-3.325l150.738-4.698a5.676 5.676 0 1 1 .177 11.349H199.555a3.326 3.326 0 0 1-3.326-3.326" class="H"/><path fill="#4fbbff" d="M396.178 51.064c7.554-1.012 25.825-1.943 39.419-.616-2.284-1.714-4.438-8.44-6.799-11.645-19.429-2.417-36.721.76-32.62 12.261"/><path d="M408.066 37.259a1.272 1.272 0 0 0 .331 2.522zm18.507-.004c-8.118-.871-15.687-.366-18.507.004l.331 2.522c2.647-.347 10.013-.843 17.904.003z" class="F"/><path d="M349.548 66.417H202.721m255.069-1.72 42.829 1.441m-13.202 5.832h-24.945M328.717 57.133l-99.06 2.719m84.064-7.177-7.776-24.48a11.85 11.85 0 0 0-11.295-8.263h0c-.825 0-1.505.648-1.544 1.472l-1.566 32.875" class="B C D"/><path d="M438.475 86.653 323.656 88.37l-17.334-8.238 105.814-9.866 21.879-.829a63.5 63.5 0 0 1 11.816.656l9.002 1.349-1.941 8.691-6.178 5.32-8.239 1.201z" class="H"/><g class="C D"><path d="m310.073 54.414 97.251-26.218a14.63 14.63 0 0 1 15.369 5.164l11.093 14.316c1.362 1.757 3.454 2.735 5.661 3.002 6.459.782 15.126 4.203 15.766 18.991v2.203c0 7.959-6.346 14.458-14.304 14.619l-116.417 1.777c-3.967-.441-17.941-8.266-24.431-12.124" class="B"/><path d="M272.07 66.567h29.481v28.249h-9.767c-10.888 0-19.714-8.827-19.714-19.715z" class="H"/><path d="M313.762 81.252c0 7.605-5.592 13.564-12.248 13.564s-12.247-5.959-12.247-13.564 5.592-13.564 12.247-13.564 12.248 5.959 12.248 13.564z" class="E"/></g><g class="B G"><path stroke="#f3f3f3" d="m443.408 61.285-11.954-.879-19.865.879" class="K"/><path d="m269.575 90.104-109.86 9.583 101.118-23.094" class="C I"/></g><path d="m80.071 153.355 80.301-2.854v84.775H80.071zm80.302-2.854 160.566 32.353 2.148 69.984-162.714-17.562z" class="E"/><g class="H"><path d="M104.891 235.276h96.606l166.487 22.253-7.121 54.717H111.716z"/><path d="m178.727 203.066 25.551 34.069-94.102 62.033-75.367-55.7-7.475-28.312a14.77 14.77 0 0 1 6.491-16.323l24.133-14.985z"/></g><g class="B C D"><path d="m48.11 253.12 61.108 45.227 2.789 12.193" class="G"/><path d="m83.466 177.105 72.267-1.794m8.887 0 144.863 28.769m-122.617 2.67 122.617 22.255"/></g><path d="m99.704 284.871 263.175 9.986-16.839 16.781H111.446l-2.574-14.373z" class="F"/><g class="C"><g class="D"><g class="E G"><path d="M180.357 301.169c31.9-8.861 29.537 3.692 24.368 11.077h-92.674c14.473-37.218 26.214-26.707 30.276-16.8 43.568-32.934 43.506-9.907 38.03 5.723z"/><path d="M80.203 305.12c-14.874-5.701-13.772 2.375-11.362 7.126h43.21c-6.748-23.943-12.223-17.181-14.116-10.808-20.314-21.187-20.285-6.373-17.731 3.682z"/></g><path d="M9.702 312.246h409.7"/><g class="B"><path d="M261.784 165.737h14.645m5.665 0h14.645m9.622 0h14.645m7.782 0h14.645m10.242-9.733v17.479h-9.724v64.476"/><path d="m34.892 243.077-7.602-29.672a12.56 12.56 0 0 1 5.444-13.724l20.384-12.917a12.56 12.56 0 0 1 8.786-1.779l18.183 3.03m0 0v-34.374l80.525-3.501 92.937 19.708M80.087 188.015l14.333 2.256m159.129-20.423v-11.66a2.955 2.955 0 0 1 2.955-2.955h32.692v-4.366a2.955 2.955 0 0 1 2.955-2.955h24.963a2.955 2.955 0 0 1 2.955 2.955v4.366h38.421a2.955 2.955 0 0 1 2.955 2.955v19.324h-10.189v48.27m-97.707-55.934 12.832 2.696" class="G"/><path d="m336.407 253.133 28.382 3.675a3.18 3.18 0 0 1 2.743 3.574l-6.929 52.02H220.752m-71.993-114.037 25.453 4.026a11.82 11.82 0 0 1 7.632 4.614l21.53 28.908 46.047 5.832m-88.991-87.369v45.559m128.31-22.951 32.74 6.056 1.172 59.248M57.511 201.1l6.46 38.677 45.031 57.445"/></g><path d="M91.453 222.872c2.918 5.087 1.685 10.795-2.092 12.961s-9.327.351-12.245-4.736-1.685-10.794 2.092-12.961 9.327-.351 12.245 4.736zm-50.647 3.783c-.149 2.177.337 4.135 1.178 5.537s1.969 2.152 3.117 2.231 2.364-.506 3.392-1.784 1.774-3.148 1.923-5.325-.337-4.136-1.178-5.538-1.969-2.152-3.117-2.23-2.364.506-3.392 1.784-1.774 3.148-1.923 5.325z" class="E"/><path d="m238.783 170.437.782 16.323m44.447-5.97.796 14.985m-88.334-34.463.782 16.323m-65.794-22.507v16.323m0 7.949v13.633m-30.21-36.352v16.211m0 7.949v8.175m138.579 4.98.782 16.323m44.463-7.309.782 16.323m-88.332-34.461.782 16.323m42.306 19.648.782 16.323m44.463-8.366.782 16.323m-88.253-32.591.474 12.402" class="B"/></g><g class="I"><path d="M56.628 160.186H2c0-5.994 10.015-17.888 21.966-8.275 0-18.718 21.97-23.711 24.225-1.991" class="B G"/><path d="m70.396 146.651-.001-26.858" class="B L"/><circle cx="70.304" cy="96.91" r="21.951"/></g></g><mask id="A" class="E"><rect width="11.299" height="16.558" x="53.68" y="88.631" rx="1.477"/></mask><rect width="11.299" height="16.558" x="53.68" y="88.631" class="C J" mask="url(#A)" rx="1.477"/><mask id="B" class="E"><rect width="25.764" height="16.558" x="62.694" y="88.631" rx="1.477"/></mask><g class="C"><rect width="25.764" height="16.558" x="62.694" y="88.631" class="J" mask="url(#B)" rx="1.477"/><g class="I"><path d="M114.409 150.735v-15.299a3.693 3.693 0 0 1 3.694-3.693h17.255a3.694 3.694 0 0 0 3.694-3.694v-11.446" class="B"/><circle cx="139.364" cy="108.682" r="7.916"/></g><path d="M668.652 255.094V113.28a3.18 3.18 0 0 0-3.179-3.18h-81.175a3.18 3.18 0 0 0-3.18 3.18v46.865m11-32.097h65.35m-65.35 21.388h65.35m-65.158 24.157h65.349m-45.299 21.261h45.299m-35.044 24.971h35.043m-197.326-71.627h45.092m17.083 10.162v-18.852a3.18 3.18 0 0 0-3.18-3.18h-71.739a3.18 3.18 0 0 0-3.18 3.18v18.852" class="B D"/><g class="I"><path d="M475.423 44.555h80.578c-1.279-15.774-9.55-42.292-32.402-22.169-4.501-14.709-17.948-35.889-35.732-2.937" class="B G"/><path d="M555.351 158.351v-45.229" class="B L"/><circle cx="555.258" cy="90.239" r="21.951"/></g></g><mask id="C" class="E"><rect width="12.961" height="21.964" x="540.322" y="79.255" rx="1.477"/></mask><rect width="12.961" height="21.964" x="540.322" y="79.255" class="C J" mask="url(#C)" rx="1.477"/><mask id="D" class="E"><rect width="19.837" height="21.964" x="550.358" y="79.255" rx="1.477"/></mask><rect width="19.837" height="21.964" x="550.358" y="79.255" class="C J" mask="url(#D)" rx="1.477"/><mask id="E" class="E"><rect width="10.082" height="11.163" x="555.236" y="79.255" rx="1.477"/></mask><g class="C"><rect width="10.082" height="11.163" x="555.236" y="79.255" class="J" mask="url(#E)" rx="1.477"/><g class="I"><path d="M398.98 163.568v-6.834a3.693 3.693 0 0 0-3.693-3.694h-17.256a3.69 3.69 0 0 1-3.693-3.693v-11.446" class="B"/><circle cx="6.359" cy="6.359" r="4.881" transform="matrix(-1 0 0 1 380.697 126.236)"/></g><path d="M326.699 329.378h381.4" class="B D"/></g><use class="F" href="#G"/><ellipse cx="598.305" cy="302.76" class="E" rx="21.119" ry="26.651"/><use x="-139.587" y="-.523" class="F" href="#G"/><g class="E"><ellipse cx="458.336" cy="300.898" rx="21.119" ry="26.651"/><path fill-rule="evenodd" d="M348.502 170.748a6.36 6.36 0 0 1 6.36-6.36h212.413a9.54 9.54 0 0 1 8.018 4.371l38.891 60.332a9.53 9.53 0 0 0 4.569 3.726l22.421 8.694a9.54 9.54 0 0 1 6.039 7.896l4.096 38.96h-72.722v6.989H348.502z"/></g><path d="M547.825 286.792a3.18 3.18 0 0 1 3.418-3.5l49.63 3.989h26.692l22.388-2.39a4.77 4.77 0 0 1 5.261 4.365l1.459 18.358a3.18 3.18 0 0 1-3.17 3.432H552.651a2.545 2.545 0 0 1-2.53-2.28zm-135.01 3.998a3.18 3.18 0 0 1 3.163-3.508h83.743a4.77 4.77 0 0 1 4.748 4.309l1.549 15.968a3.18 3.18 0 0 1-3.165 3.487h-85.645a2.543 2.543 0 0 1-2.53-2.281z" class="F"/><path d="M582.526 259.161a1.91 1.91 0 0 1 1.889-1.64h45.436a3.5 3.5 0 0 1 3.369 2.556l6.707 24.013a1.91 1.91 0 0 1-1.838 2.421h-57.971a1.27 1.27 0 0 1-1.259-1.45z" class="C D"/><path fill="#4fbbff" d="m509.855 194.79 22.148 37.466 77.187-1.024-20.351-31.498a10.81 10.81 0 0 0-9.081-4.944zm-38.406 4.508 2.459 34.216a3.18 3.18 0 0 0 2.86 2.937l45.087 4.431c2.595.255 4.377-2.549 3.044-4.79l-20.759-34.915a10.81 10.81 0 0 0-9.293-5.286h-20.226a3.18 3.18 0 0 0-3.172 3.407"/><path d="m532.106 232.965 23.152 12.853" class="B C D"/><path d="M551.673 302.26c0 14.719-7.797 26.11-21.119 26.11-36.094 2.007-21.119-11.391-21.119-26.11s-11.436-29.324 21.119-26.651c11.664 0 21.119 11.932 21.119 26.651" class="F"/><ellipse cx="518.244" cy="302.26" class="E" rx="21.119" ry="26.651"/><path fill="#f2b600" d="m560.003 247.587 18.442 7.371a3.18 3.18 0 0 1 1.875 3.835l-.896 3.101a3.18 3.18 0 0 1-3.055 2.298h-15.19a3.18 3.18 0 0 1-2.565-1.301l-2.916-3.98a3.18 3.18 0 0 1-.602-2.152l.559-6.492a3.18 3.18 0 0 1 4.348-2.68m82.972 2.336-5.713 4.025a3.18 3.18 0 0 0-1.306 3.113l.375 2.29a3.18 3.18 0 0 0 3.138 2.666h4.832a3.18 3.18 0 0 0 3.062-2.322l.693-2.474c.092-.329.131-.671.114-1.013l-.188-3.841c-.122-2.504-2.958-3.888-5.007-2.444"/><path d="M558.489 194.854H583.4a3.18 3.18 0 0 1 2.605 1.357l5.663 8.089" class="B C D"/><path fill="#006ef2" fill-opacity=".937" d="m441.495 239.843 2.913-75.055h-95.906v126.728h17.442l10.902-16.791h26.839l28.359-18.306a20.69 20.69 0 0 0 9.451-16.576"/><path d="m651.315 287.282-3.334-37.881a9.86 9.86 0 0 0-6.597-8.451l-24.644-8.524a6.36 6.36 0 0 1-3.3-2.617l-36.7-58.176a15.9 15.9 0 0 0-13.447-7.417H352.238a3.816 3.816 0 0 0-3.816 3.816v104.466" class="B C D"/><g class="F"><path d="M341.896 284.46a3.18 3.18 0 0 1 3.178-3.277h25.951a4.77 4.77 0 0 1 4.767 4.633l.627 21.96a3.18 3.18 0 0 1-3.178 3.27h-28.067a2.544 2.544 0 0 1-2.543-2.466z"/><path d="M421.897 303.263c0 14.719-8.175 26.11-22.145 26.11-37.85 2.007-22.146-11.391-22.146-26.11s-11.993-29.324 22.146-26.651c12.23 0 22.145 11.932 22.145 26.651"/></g><ellipse cx="385.158" cy="301.919" class="E" rx="21.335" ry="26.651"/><path d="M406.981 311.046h12.421l-1.567-21.243a22.26 22.26 0 0 0-22.198-20.621h-14.684a19.4 19.4 0 0 0-19.397 19.397l.001 9.089 2.473 1.061c.919-8.199 5.302-23.105 21.727-23.105 19.211 0 22.328 23.691 21.224 35.422m133.424.318h12.42l-1.566-21.242a22.26 22.26 0 0 0-22.198-20.622h-14.684a19.4 19.4 0 0 0-19.397 19.397l.001 9.09 2.473 1.06c.919-8.198 5.302-23.104 21.727-23.104 19.211 0 22.328 23.69 21.224 35.421" class="F"/><path d="M400.468 305.721c0 7.846-5.694 14.207-12.718 14.207s-12.717-6.361-12.717-14.207m157.472.962c0 7.846-5.694 14.207-12.717 14.207s-12.718-6.361-12.718-14.207m-119.319-23.672c7.024 0 12.718 6.36 12.718 14.206m119.317-13.245c7.023 0 12.717 6.36 12.717 14.206" class="B C D"/><path d="m567.427 222.993-22.972-25.104a3.7 3.7 0 0 0-2.725-1.2h-8.019c-3.123 0-4.836 3.635-2.85 6.044l20.7 25.103a3.69 3.69 0 0 0 2.849 1.344h10.292c3.212 0 4.893-3.817 2.725-6.187" class="E"/><path d="M602.858 231.732h-38.876l-31.621 1.226a.72.72 0 0 1-.637-.34l-37.369-60.669a15.9 15.9 0 0 0-13.537-7.561h-.094M367.131 313.502c1.722 4.579 6.879 13.883 15.804 14.048m116.722-14.048c1.722 4.579 6.88 13.883 15.804 14.048m63.056-14.048c1.721 4.579 6.879 13.883 15.804 14.048m-152.838-13.008c1.722 4.579 5.703 12.53 14.628 12.695" class="B C D"/><path stroke="#fff" d="M579.494 293.09h-9.307a6.36 6.36 0 0 0-6.36 6.36v3.562m81.328-9.922h0a6.083 6.083 0 0 1 6.082 6.083v3.839" class="B D"/><path d="M479.452 195.946h-4.671a3.18 3.18 0 0 0-3.173 3.381l1.499 23.568" class="B C D"/><path d="m527.165 238.447-11.073-18.623h-8.995a3.18 3.18 0 0 0-3.176 3.333l1.098 22.839h22.146z" class="E"/><g class="B"><path stroke="#f3f3f3" d="M468.28 174.469h9.584a11.08 11.08 0 0 1 9.391 5.198l1.425 2.275m-48.537 80.015-20.002 12.77m207.936-28.339-18.38-5.745m-87.137 21.761h7.684a27.33 27.33 0 0 1 20.264 8.991l4.484 4.953" class="G K"/><g class="D"><path d="M461.4 168.94v113.619" class="C"/><path stroke="#fff" d="M461.4 293.091v13.592m-37.342 3.358h-6.912a7 7 0 0 1-6.087-3.548l-.437-.772m157.121 7.105h-8.821a7 7 0 0 1-5.835-3.137l-1.208-1.827"/></g></g><defs><path id="G" d="M631.734 302.761c0 14.719-7.796 26.11-21.118 26.11-36.095 2.007-21.119-11.391-21.119-26.11s-11.436-29.324 21.119-26.652c11.663 0 21.118 11.933 21.118 26.652"/></defs></svg>